<?xml version="1.0" standalone="no"?>
<!DOCTYPE svg PUBLIC "-//W3C//DTD SVG 20010904//EN"
 "http://www.w3.org/TR/2001/REC-SVG-20010904/DTD/svg10.dtd">
<svg version="1.0" xmlns="http://www.w3.org/2000/svg"
 width="622.000000pt" height="265.000000pt" viewBox="0 0 622.000000 265.000000"
 preserveAspectRatio="xMidYMid meet">
<metadata>
Created by potrace 1.16, written by Peter Selinger 2001-2019
</metadata>
<g transform="translate(0.000000,265.000000) scale(0.100000,-0.100000)"
fill="#000000" stroke="none">
<path d="M664 1697 c-108 -41 -173 -142 -161 -250 5 -37 24 -81 73 -166 37
-64 86 -150 109 -191 247 -435 282 -488 347 -522 87 -45 213 -23 279 49 15 15
88 136 164 268 76 132 171 296 211 365 89 153 103 196 85 276 -11 48 -22 66
-65 109 -32 32 -66 55 -92 63 -57 17 -905 16 -950 -1z m591 -49 c34 -18 67
-52 85 -87 17 -34 15 -122 -4 -160 l-17 -31 -231 0 c-214 0 -235 -2 -275 -21
-46 -22 -91 -73 -113 -127 -7 -18 -16 -29 -21 -25 -4 4 -35 55 -68 113 -54 93
-61 111 -61 158 0 65 22 115 66 150 59 48 89 52 359 49 207 -2 255 -6 280 -19z
m330 11 c93 -25 150 -103 143 -198 -4 -59 1 -48 -183 -366 -32 -55 -65 -110
-74 -122 -46 -62 -162 -83 -230 -42 -39 24 -70 58 -71 78 0 8 45 91 100 186
55 94 106 188 115 208 28 67 16 155 -30 216 -13 19 -22 37 -20 41 7 11 207 10
250 -1z m-553 -509 c126 -220 136 -233 203 -266 48 -23 64 -26 115 -21 33 3
60 4 60 2 0 -5 -66 -120 -103 -178 -78 -124 -245 -132 -325 -15 -16 24 -78
129 -138 233 -103 179 -109 193 -109 246 0 47 5 63 30 95 36 49 52 61 90 73
66 21 69 19 177 -169z m252 172 c6 -11 -136 -253 -147 -249 -11 3 -147 233
-147 248 0 11 287 12 294 1z"/>
<path d="M2042 1663 c-48 -23 -66 -65 -67 -148 0 -51 5 -78 18 -98 34 -53 60
-61 206 -68 75 -3 143 -9 152 -13 36 -16 53 -124 28 -179 -17 -38 -50 -47
-180 -47 -141 0 -174 11 -184 62 -12 60 -16 68 -36 68 -16 0 -19 -7 -19 -42 0
-53 28 -101 72 -125 27 -15 57 -18 168 -18 152 0 187 12 223 73 26 44 26 149
0 199 -30 58 -70 73 -193 73 -141 0 -177 11 -197 58 -21 51 -11 120 22 150 24
20 36 22 143 22 143 0 162 -8 181 -73 10 -32 20 -47 32 -47 23 0 29 20 19 65
-19 84 -66 105 -232 105 -93 0 -131 -4 -156 -17z"/>
<path d="M2617 1674 c-4 -4 -7 -141 -7 -304 0 -256 2 -299 15 -310 33 -28 38
2 36 255 -1 163 3 245 9 243 6 -2 56 -73 113 -158 75 -114 107 -155 122 -155
15 0 47 41 122 155 56 85 106 156 110 157 4 2 7 -104 6 -235 -2 -191 0 -242
11 -257 12 -16 16 -17 30 -6 14 12 16 47 14 315 -4 387 4 382 -167 120 -85
-130 -125 -184 -133 -176 -6 6 -61 88 -123 184 -106 164 -135 195 -158 172z"/>
<path d="M3563 1668 c-9 -12 -75 -165 -199 -462 -50 -118 -53 -131 -39 -145
15 -15 17 -14 30 2 7 10 26 50 42 88 l28 69 163 -2 164 -3 33 -80 c32 -79 49
-95 67 -65 7 11 -14 71 -77 220 -48 113 -105 246 -126 295 -38 90 -62 114 -86
83z m96 -237 c34 -79 58 -147 55 -152 -6 -11 -251 -12 -257 -1 -7 12 125 314
134 305 4 -4 35 -73 68 -152z"/>
<path d="M3987 1673 c-4 -3 -7 -142 -7 -309 0 -247 2 -303 14 -307 29 -11 36
17 36 135 0 87 3 118 13 119 52 2 168 1 171 -2 1 -2 38 -61 82 -131 43 -71 84
-128 90 -128 6 0 17 6 23 13 8 11 -5 39 -59 123 -38 60 -70 115 -70 121 0 7
11 15 25 19 34 9 83 67 91 109 11 60 0 152 -22 183 -39 53 -74 62 -235 62 -80
0 -149 -3 -152 -7z m312 -58 c39 -20 54 -63 49 -136 -4 -52 -9 -66 -32 -86
-25 -22 -35 -23 -157 -23 l-129 0 0 130 0 130 120 0 c86 0 129 -4 149 -15z"/>
<path d="M4488 1668 c-12 -33 3 -38 118 -38 l114 0 0 -284 c0 -287 3 -312 35
-286 13 10 15 59 15 291 l0 278 113 3 c104 3 112 4 112 23 0 19 -8 20 -251 23
-196 2 -253 0 -256 -10z"/>
<path d="M1940 705 c0 -93 4 -165 9 -165 5 0 11 5 13 11 3 9 9 9 25 0 12 -6
44 -11 72 -11 66 0 91 29 91 106 0 66 -13 100 -40 109 -33 10 -111 8 -123 -4
-21 -21 -27 -10 -27 54 0 37 -4 65 -10 65 -6 0 -10 -62 -10 -165z m168 23 c7
-7 12 -40 12 -80 0 -65 -1 -69 -27 -79 -33 -12 -98 -3 -118 18 -23 23 -20 108
5 133 23 23 108 28 128 8z"/>
<path d="M2539 752 c-24 -21 -31 -74 -11 -94 7 -7 44 -14 84 -17 l73 -6 3 -32
c3 -30 1 -32 -33 -39 -49 -9 -104 1 -120 23 -20 27 -30 7 -11 -22 15 -23 22
-25 91 -25 68 0 76 2 91 25 17 26 12 79 -9 92 -7 5 -43 10 -82 13 l-70 5 0 30
c0 30 0 30 64 33 51 2 65 0 76 -15 16 -22 33 -9 19 15 -22 34 -128 43 -165 14z"/>
<path d="M3525 763 c-27 -6 -45 -32 -45 -64 0 -41 33 -59 107 -59 59 0 63 -2
69 -26 9 -37 -9 -49 -77 -49 -46 0 -64 4 -73 18 -17 22 -26 22 -26 -3 0 -28
30 -40 104 -40 75 0 96 14 96 64 0 46 -22 60 -99 66 -66 5 -66 5 -66 35 0 30
0 30 63 33 49 2 64 0 68 -13 9 -21 24 -19 24 4 0 31 -78 50 -145 34z"/>
<path d="M3795 763 c-33 -9 -45 -24 -45 -58 0 -45 22 -59 99 -65 64 -5 66 -6
69 -34 4 -36 -10 -46 -70 -46 -36 0 -53 5 -69 21 -14 14 -24 18 -31 11 -7 -7
-3 -17 11 -31 17 -17 33 -21 89 -21 76 0 102 16 102 61 0 49 -22 64 -102 69
-60 4 -73 8 -76 23 -7 33 17 47 80 47 43 0 60 -4 64 -15 4 -8 10 -15 15 -15
14 0 11 26 -5 39 -16 13 -101 23 -131 14z"/>
<path d="M4495 765 c-5 -2 -22 -6 -36 -9 -33 -7 -49 -43 -49 -112 0 -45 4 -59
25 -79 20 -21 34 -25 85 -25 84 0 100 17 100 109 0 82 -16 106 -75 114 -22 3
-44 4 -50 2z m89 -41 c20 -19 22 -112 3 -138 -16 -22 -83 -31 -119 -17 -27 10
-28 14 -28 79 0 40 5 73 12 80 18 18 113 15 132 -4z"/>
<path d="M5030 763 c-43 -15 -54 -82 -18 -107 15 -10 45 -16 85 -16 59 0 63
-1 69 -27 9 -35 -16 -53 -78 -53 -35 0 -54 6 -68 20 -25 25 -30 25 -30 0 0
-28 30 -40 100 -40 82 0 100 11 100 60 0 53 -26 70 -106 70 -52 0 -62 3 -67
19 -9 37 10 51 74 51 44 0 61 -4 65 -15 9 -23 33 -19 27 5 -8 30 -104 51 -153
33z"/>
<path d="M3214 739 c-15 -17 -19 -36 -19 -91 0 -61 3 -72 24 -89 30 -24 126
-26 159 -3 22 15 31 54 12 54 -5 0 -10 -7 -10 -15 0 -23 -49 -38 -99 -31 -48
7 -61 18 -61 54 0 21 3 22 90 22 86 0 90 1 91 23 4 79 -15 97 -101 97 -55 0
-70 -4 -86 -21z"/>
</g>
</svg>
